<?xml version="1.0" encoding="utf-8"?>
<!-- Generator: Adobe Illustrator 19.2.1, SVG Export Plug-In . SVG Version: 6.00 Build 0)  -->
<svg version="1.1" id="レイヤー_1" xmlns="http://www.w3.org/2000/svg" xmlns:xlink="http://www.w3.org/1999/xlink" x="0px"
	 y="0px" viewBox="0 0 248.9 55.9" style="enable-background:new 0 0 248.9 55.9;" xml:space="preserve">
<style type="text/css">
	.st0{fill:#0C6EB4;}
	.st1{fill:#D71518;}
</style>
<g>
	<path class="st0" d="M100.7,12.6v6.6l-15,16.9h15v7.1H75.4v-6.7l15.1-17H76v-6.9H100.7 M155.5,12.6h-6.7v30.6h6.7V12.6z M173.9,29
		c-1.1-1-2.3-1.2-2.3-1.2s-0.1,0-0.1-0.2c0-0.1,0.1-0.2,0.1-0.2c0.8,0,2.7-0.8,3.5-2.4c0.9-1.6,0.8-3.8,0.8-3.8
		c0-3.3-0.4-5.5-1.6-6.7c-2-2.1-5.6-1.8-5.6-1.8h-8.6v30.6h6.1V29.6c0,0,1.8-0.2,2.6,0.7c0.5,0.7,0.6,1.5,0.6,3
		c0,2.6,0.2,9.9,0.2,9.9h6.3c0,0-0.1-8.7-0.2-10.3C175.6,31.3,174.8,29.8,173.9,29 M169.5,21.2c0,1.8-0.1,2.8-0.6,3.4
		c-0.6,0.7-1.3,0.7-1.3,0.7h-1.4v-4.1v-4.1h1.4c0,0,0.9-0.1,1.4,0.6C169.4,18.3,169.5,19.4,169.5,21.2 M189.4,12.6v24.8
		c0,0.9-0.7,1.6-1.6,1.6c-0.9,0-1.6-0.7-1.6-1.6l0-24.8h-6.4v21.8c0,0.6,0,0.9,0.2,3.1c0.2,2.1,0.8,3.5,2.1,4.7
		c1.4,1.2,3.5,1.9,5.7,1.9c2.2,0,4.3-0.7,5.8-1.9c1.4-1.2,1.9-2.5,2.1-4.7c0.2-2.1,0.2-2.5,0.2-3.1V12.6H189.4 M228.8,12.6v11.9
		h-3.3V12.6h-6.4v30.6h6.4V29.4h3.3v13.9h6.4V12.6H228.8 M246.5,12.6h-6.6v30.6h6.6V12.6z M137.9,12.6v21.1c0,0.5,0.1,2.3-0.7,3.2
		c-0.7,0.9-2.2,1-2.9,1h-2.6v5.2h5.8c1.4,0,4-0.4,5.5-2.4c1.4-2,1.5-4.4,1.5-7.1V12.6H137.9 M214.7,30.9c-1.3-2.4-5.1-5.7-6.4-6.8
		c-1.2-1-1.9-1.7-2.2-2.5c-0.4-1-0.3-2.1-0.3-3.2c0-0.9,0.7-1.6,1.6-1.6c1.2,0,1.7,0.8,1.7,2v4.2h6.3v-4.4c0-1.4-0.8-6.6-8-6.6
		c-6.2,0-8.1,4.4-8.1,7.1c0,2-0.1,3.7,0.9,5.5c1.2,2.2,3.1,3.7,5,5.6c1.2,1,3.1,2.9,3.5,3.7c0.6,1.2,0.5,2.7,0.4,3.7
		c0,0.7-0.6,1.6-1.7,1.6c-1.3,0-1.7-1-1.7-2.3v-4.4h-6.4v3.9c0,2.6,0.9,7.7,8.1,7.7c3,0,5.2-1,6.5-2.6c1.3-1.6,1.7-3.8,1.7-5.2
		C215.6,34.6,215.4,32.3,214.7,30.9 M117.5,37.3c-0.3,0-0.5,0-0.8,0c-5.2,0-9.5-4.2-9.5-9.4c0-5.2,4.2-9.4,9.5-9.4
		c0.3,0,0.5,0,0.8,0c0,0-0.2-2-0.4-3.5c-0.2-1.5-0.6-3.7-0.6-3.7c-9.1,0.1-16.4,7.5-16.4,16.6c0,9.2,7.4,16.5,16.5,16.6
		c0,0,0.3-1.6,0.5-3.5C117.3,39.1,117.5,37.3,117.5,37.3 M121.2,12c0.5,2.5,0.8,5.4,1,8.3c2.4,1.7,3.9,4.5,3.9,7.6s-1.5,5.9-3.9,7.6
		c-0.2,2.9-0.6,5.8-1,8.3c7-2,12.1-8.3,12.1-16C133.4,20.3,128.2,13.9,121.2,12"/>
	<path class="st1" d="M117.9,2.8c-0.6-0.6-1.3-0.9-2-0.9c-2.1,0-3.7,2.9-4.9,8.2c-0.2,0.8-0.3,1.6-0.5,2.4c0.8-0.3,1.6-0.6,2.4-0.8
		c0.5-2.5,1-4.4,1.6-5.7c0.3-0.7,0.7-1.4,1.4-1.4c0.7,0,1,0.6,1.3,1.4c1.5,3.5,2.9,11.5,2.9,21.9c0,6.2-0.5,11.2-1.1,15
		c-0.6,3.8-1.3,6.4-2.1,7.7c-0.3,0.4-0.6,0.6-1,0.6c-0.4,0-0.7-0.3-0.9-0.6c-0.7-1.3-1.5-3.5-2-6.6c-0.8-0.2-1.6-0.4-2.4-0.7
		c0.8,4.3,1.9,7.9,3.4,9.6c0.6,0.6,1.3,1,2,1c0.7,0,1.4-0.3,2-0.9c3.1-3.5,4.7-14.9,4.7-25.2C122.6,17.7,120.9,5.9,117.9,2.8"/>
	<path class="st0" d="M42.2,18.7c1.4,0,2.5-1.1,2.5-2.5c0-1.4-1.1-2.5-2.5-2.5c-1.4,0-2.5,1.1-2.5,2.5
		C39.7,17.6,40.8,18.7,42.2,18.7"/>
	<path class="st0" d="M2.4,12.3h0.7c1.6,0,5.6,0.2,9.6,1.9c2,0.8,3.9,2.1,6,3.5c0.9,0.6,1.8,1.1,2.8,1.7c1.6,1,3.2,2,5.1,2.8
		c0,1,0.1,2.9,0.6,4.8l0.1,0.4c0.8,2.7,2.2,7.2,1.5,14.9l-0.1,1h31.5l0.1-0.8c0,0,0.3-4.3,1.5-7.3c1.5-3.8,2.4-8.4,2.2-11
		c0.5-0.4,1-0.8,1.5-1.3c2.2-2.2,3.5-5.2,3.5-8.4c0-3.2-1.2-6.2-3.5-8.4c-2.2-2.2-5.2-3.5-8.4-3.5c-2.2,0-4.6,0.7-6.4,1.8
		c-2.9-1.8-6.1-2.2-8.5-2.3c-2.9-0.1-5.5,0.5-7.7,1.6c-1.3-0.8-2.8-1.3-4.4-1.3c-3.5,0-6.6,2-8,5.1c-1-0.3-2.2-0.5-3.5-0.9
		C12.7,5.1,6.5,5.2,3.1,5.2H2.4v1.9l0.7,0c3.2,0,9.3,0,14.6,1.3c2.3,0.6,5.1,1.4,7.7,2c2,0.4,3.8,0.6,3.9,0.6l0.6,0l0.3-0.5
		C33.2,6,37.1,4,42.4,4c2.7,0,4.9,0.7,6.8,1.7c-0.7,0.6-1.1,1.1-1.7,1.9l1.7,1.1C51,6.1,54,4.6,57.3,4.6c2.6,0,5.1,1,7,2.9
		c1.9,1.9,2.9,4.4,2.9,7c0,5.5-4.5,9.9-9.9,9.9v2c1.7,0,3.4-0.4,5-1.1c-0.1,2.3-0.8,5.8-2.1,9.2c-1,2.5-1.4,5.6-1.5,7.1h-6.2
		c0.4-2.4,0.6-6.5,0.7-7.3c1.2-0.5,2.2-1.2,3.2-2.1L55,30.6c-2.7,2.9-8.1,3.1-8.1,3.1l-1,0l0,0.9c-0.1,2.8-0.5,5.9-0.7,6.9h-6.9
		c0.6-3.4,0.5-9,0.5-9l-0.7-0.2c-2.5-0.8-3.8-1.7-3.8-1.7l-0.9,1.6c0,0,1,0.8,3.4,1.7c0,1.5-0.1,5.1-0.6,7.7H31
		c0.5-7.9-0.9-11.9-1.7-14.6l-0.1-0.4c-0.4-1.3-0.5-2.7-0.5-3.5c1.5,0.5,3.1,0.9,4.9,1.1c-0.3,0.7-1.2,1.4-2.5,1.9l0.8,1.6
		c3.2-1.3,3.9-3.6,4-3.9c0.1-0.3,0.3-1.3,0.3-1.3l-1-0.1c-6.8-0.4-11.1-3.8-15.3-6.5c-2.1-1.3-4.2-2.6-6.4-3.5
		c-4.4-1.9-8.7-2-10.3-2c-0.5,0-0.7,0-0.7,0V12.3z M28.9,9c-0.8-0.1-2.3-0.3-4.7-0.9c1.2-2.2,3.5-3.7,6.1-3.7c0.9,0,1.7,0.2,2.5,0.5
		C31.4,6,30.1,7.3,28.9,9 M47.7,35.6c0.8-0.1,2-0.2,3.4-0.6c-0.1,1.6-0.4,4.8-0.7,6.6h-3.3C47.3,40.5,47.6,38,47.7,35.6"/>
</g>
</svg>
